<svg xmlns="http://www.w3.org/2000/svg" xmlns:xlink="http://www.w3.org/1999/xlink" width="500" zoomAndPan="magnify" viewBox="0 0 375 374.999991" height="500" preserveAspectRatio="xMidYMid meet" version="1.0"><defs><g/><clipPath id="3053542041"><path d="M 131.25 131.25 L 243.75 131.25 L 243.75 243.75 L 131.25 243.75 Z M 131.25 131.25 " clip-rule="nonzero"/></clipPath><clipPath id="10f7f2c757"><path d="M 187.5 131.25 C 156.433594 131.25 131.25 156.433594 131.25 187.5 C 131.25 218.566406 156.433594 243.75 187.5 243.75 C 218.566406 243.75 243.75 218.566406 243.75 187.5 C 243.75 156.433594 218.566406 131.25 187.5 131.25 Z M 187.5 131.25 " clip-rule="nonzero"/></clipPath></defs><rect x="-37.5" width="450" fill="#ffffff" y="-37.499999" height="449.999989" fill-opacity="1"/><rect x="-37.5" width="450" fill="#004aad" y="-37.499999" height="449.999989" fill-opacity="1"/><g clip-path="url(#3053542041)"><g clip-path="url(#10f7f2c757)"><path fill="#ffbd59" d="M 131.25 131.25 L 243.75 131.25 L 243.75 243.75 L 131.25 243.75 Z M 131.25 131.25 " fill-opacity="1" fill-rule="nonzero"/></g></g><g fill="#ffffff" fill-opacity="1"><g transform="translate(20.777347, 204.374987)"><g><path d="M 27.75 -34.359375 L 27.75 -27.65625 L 18.640625 -27.65625 L 18.640625 0 L 10.28125 0 L 10.28125 -27.65625 L 1.171875 -27.65625 L 1.171875 -34.359375 Z M 27.75 -34.359375 "/></g></g></g><g fill="#ffffff" fill-opacity="1"><g transform="translate(49.692502, 204.374987)"><g><path d="M 1.375 -13.703125 C 1.375 -16.503906 1.898438 -18.960938 2.953125 -21.078125 C 4.015625 -23.203125 5.457031 -24.835938 7.28125 -25.984375 C 9.113281 -27.128906 11.15625 -27.703125 13.40625 -27.703125 C 15.332031 -27.703125 17.019531 -27.304688 18.46875 -26.515625 C 19.925781 -25.734375 21.046875 -24.707031 21.828125 -23.4375 L 21.828125 -27.3125 L 30.1875 -27.3125 L 30.1875 0 L 21.828125 0 L 21.828125 -3.859375 C 21.015625 -2.585938 19.878906 -1.5625 18.421875 -0.78125 C 16.972656 0 15.285156 0.390625 13.359375 0.390625 C 11.140625 0.390625 9.113281 -0.1875 7.28125 -1.34375 C 5.457031 -2.5 4.015625 -4.144531 2.953125 -6.28125 C 1.898438 -8.425781 1.375 -10.898438 1.375 -13.703125 Z M 21.828125 -13.65625 C 21.828125 -15.738281 21.25 -17.382812 20.09375 -18.59375 C 18.9375 -19.800781 17.523438 -20.40625 15.859375 -20.40625 C 14.191406 -20.40625 12.78125 -19.804688 11.625 -18.609375 C 10.46875 -17.421875 9.890625 -15.785156 9.890625 -13.703125 C 9.890625 -11.617188 10.46875 -9.960938 11.625 -8.734375 C 12.78125 -7.515625 14.191406 -6.90625 15.859375 -6.90625 C 17.523438 -6.90625 18.9375 -7.503906 20.09375 -8.703125 C 21.25 -9.910156 21.828125 -11.5625 21.828125 -13.65625 Z M 21.828125 -13.65625 "/></g></g></g><g fill="#ffffff" fill-opacity="1"><g transform="translate(82.913131, 204.374987)"><g><path d="M 14.140625 0.390625 C 11.765625 0.390625 9.644531 -0.015625 7.78125 -0.828125 C 5.914062 -1.648438 4.445312 -2.769531 3.375 -4.1875 C 2.300781 -5.601562 1.695312 -7.191406 1.5625 -8.953125 L 9.84375 -8.953125 C 9.9375 -8.003906 10.375 -7.238281 11.15625 -6.65625 C 11.9375 -6.070312 12.898438 -5.78125 14.046875 -5.78125 C 15.085938 -5.78125 15.894531 -5.984375 16.46875 -6.390625 C 17.039062 -6.796875 17.328125 -7.328125 17.328125 -7.984375 C 17.328125 -8.765625 16.914062 -9.34375 16.09375 -9.71875 C 15.28125 -10.09375 13.960938 -10.507812 12.140625 -10.96875 C 10.179688 -11.414062 8.546875 -11.894531 7.234375 -12.40625 C 5.929688 -12.914062 4.804688 -13.710938 3.859375 -14.796875 C 2.921875 -15.890625 2.453125 -17.367188 2.453125 -19.234375 C 2.453125 -20.796875 2.882812 -22.222656 3.75 -23.515625 C 4.613281 -24.804688 5.882812 -25.828125 7.5625 -26.578125 C 9.238281 -27.328125 11.238281 -27.703125 13.5625 -27.703125 C 16.976562 -27.703125 19.671875 -26.851562 21.640625 -25.15625 C 23.617188 -23.457031 24.757812 -21.207031 25.0625 -18.40625 L 17.328125 -18.40625 C 17.191406 -19.34375 16.773438 -20.085938 16.078125 -20.640625 C 15.378906 -21.203125 14.457031 -21.484375 13.3125 -21.484375 C 12.332031 -21.484375 11.582031 -21.296875 11.0625 -20.921875 C 10.539062 -20.546875 10.28125 -20.03125 10.28125 -19.375 C 10.28125 -18.59375 10.691406 -18.003906 11.515625 -17.609375 C 12.347656 -17.222656 13.648438 -16.832031 15.421875 -16.4375 C 17.441406 -15.914062 19.085938 -15.398438 20.359375 -14.890625 C 21.628906 -14.390625 22.742188 -13.578125 23.703125 -12.453125 C 24.671875 -11.328125 25.171875 -9.816406 25.203125 -7.921875 C 25.203125 -6.328125 24.753906 -4.898438 23.859375 -3.640625 C 22.960938 -2.390625 21.671875 -1.40625 19.984375 -0.6875 C 18.304688 0.03125 16.359375 0.390625 14.140625 0.390625 Z M 14.140625 0.390625 "/></g></g></g><g fill="#ffffff" fill-opacity="1"><g transform="translate(110.213731, 204.374987)"><g><path d="M 18.25 -7.09375 L 18.25 0 L 14 0 C 10.957031 0 8.585938 -0.738281 6.890625 -2.21875 C 5.203125 -3.707031 4.359375 -6.132812 4.359375 -9.5 L 4.359375 -20.359375 L 1.03125 -20.359375 L 1.03125 -27.3125 L 4.359375 -27.3125 L 4.359375 -33.96875 L 12.71875 -33.96875 L 12.71875 -27.3125 L 18.203125 -27.3125 L 18.203125 -20.359375 L 12.71875 -20.359375 L 12.71875 -9.390625 C 12.71875 -8.578125 12.910156 -7.988281 13.296875 -7.625 C 13.691406 -7.269531 14.347656 -7.09375 15.265625 -7.09375 Z M 18.25 -7.09375 "/></g></g></g><g fill="#ffffff" fill-opacity="1"><g transform="translate(130.077606, 204.374987)"><g><path d="M 28.78125 -14.09375 C 28.78125 -13.3125 28.726562 -12.492188 28.625 -11.640625 L 9.6875 -11.640625 C 9.820312 -9.953125 10.367188 -8.65625 11.328125 -7.75 C 12.285156 -6.851562 13.46875 -6.40625 14.875 -6.40625 C 16.96875 -6.40625 18.421875 -7.285156 19.234375 -9.046875 L 28.140625 -9.046875 C 27.679688 -7.253906 26.851562 -5.640625 25.65625 -4.203125 C 24.46875 -2.773438 22.976562 -1.648438 21.1875 -0.828125 C 19.394531 -0.015625 17.390625 0.390625 15.171875 0.390625 C 12.492188 0.390625 10.109375 -0.175781 8.015625 -1.3125 C 5.929688 -2.457031 4.300781 -4.085938 3.125 -6.203125 C 1.957031 -8.328125 1.375 -10.8125 1.375 -13.65625 C 1.375 -16.488281 1.953125 -18.960938 3.109375 -21.078125 C 4.265625 -23.203125 5.882812 -24.835938 7.96875 -25.984375 C 10.0625 -27.128906 12.460938 -27.703125 15.171875 -27.703125 C 17.816406 -27.703125 20.164062 -27.144531 22.21875 -26.03125 C 24.269531 -24.925781 25.875 -23.34375 27.03125 -21.28125 C 28.195312 -19.226562 28.78125 -16.832031 28.78125 -14.09375 Z M 20.21875 -16.296875 C 20.21875 -17.734375 19.726562 -18.875 18.75 -19.71875 C 17.769531 -20.570312 16.546875 -21 15.078125 -21 C 13.671875 -21 12.484375 -20.585938 11.515625 -19.765625 C 10.554688 -18.953125 9.960938 -17.796875 9.734375 -16.296875 Z M 20.21875 -16.296875 "/></g></g></g><g fill="#ffffff" fill-opacity="1"><g transform="translate(160.215905, 204.374987)"><g><path d="M 27.75 -34.359375 L 27.75 -27.65625 L 18.640625 -27.65625 L 18.640625 0 L 10.28125 0 L 10.28125 -27.65625 L 1.171875 -27.65625 L 1.171875 -34.359375 Z M 27.75 -34.359375 "/></g></g></g><g fill="#ffffff" fill-opacity="1"><g transform="translate(189.131061, 204.374987)"><g><path d="M 11.40625 -22.75 C 12.382812 -24.25 13.609375 -25.429688 15.078125 -26.296875 C 16.546875 -27.160156 18.175781 -27.59375 19.96875 -27.59375 L 19.96875 -18.75 L 17.671875 -18.75 C 15.578125 -18.75 14.007812 -18.296875 12.96875 -17.390625 C 11.925781 -16.492188 11.40625 -14.921875 11.40625 -12.671875 L 11.40625 0 L 3.03125 0 L 3.03125 -27.3125 L 11.40625 -27.3125 Z M 11.40625 -22.75 "/></g></g></g><g fill="#ffffff" fill-opacity="1"><g transform="translate(210.07131, 204.374987)"><g><path d="M 1.375 -13.703125 C 1.375 -16.503906 1.898438 -18.960938 2.953125 -21.078125 C 4.015625 -23.203125 5.457031 -24.835938 7.28125 -25.984375 C 9.113281 -27.128906 11.15625 -27.703125 13.40625 -27.703125 C 15.332031 -27.703125 17.019531 -27.304688 18.46875 -26.515625 C 19.925781 -25.734375 21.046875 -24.707031 21.828125 -23.4375 L 21.828125 -27.3125 L 30.1875 -27.3125 L 30.1875 0 L 21.828125 0 L 21.828125 -3.859375 C 21.015625 -2.585938 19.878906 -1.5625 18.421875 -0.78125 C 16.972656 0 15.285156 0.390625 13.359375 0.390625 C 11.140625 0.390625 9.113281 -0.1875 7.28125 -1.34375 C 5.457031 -2.5 4.015625 -4.144531 2.953125 -6.28125 C 1.898438 -8.425781 1.375 -10.898438 1.375 -13.703125 Z M 21.828125 -13.65625 C 21.828125 -15.738281 21.25 -17.382812 20.09375 -18.59375 C 18.9375 -19.800781 17.523438 -20.40625 15.859375 -20.40625 C 14.191406 -20.40625 12.78125 -19.804688 11.625 -18.609375 C 10.46875 -17.421875 9.890625 -15.785156 9.890625 -13.703125 C 9.890625 -11.617188 10.46875 -9.960938 11.625 -8.734375 C 12.78125 -7.515625 14.191406 -6.90625 15.859375 -6.90625 C 17.523438 -6.90625 18.9375 -7.503906 20.09375 -8.703125 C 21.25 -9.910156 21.828125 -11.5625 21.828125 -13.65625 Z M 21.828125 -13.65625 "/></g></g></g><g fill="#ffffff" fill-opacity="1"><g transform="translate(243.291949, 204.374987)"><g><path d="M 1.375 -13.65625 C 1.375 -16.488281 1.953125 -18.960938 3.109375 -21.078125 C 4.265625 -23.203125 5.878906 -24.835938 7.953125 -25.984375 C 10.023438 -27.128906 12.398438 -27.703125 15.078125 -27.703125 C 18.503906 -27.703125 21.363281 -26.800781 23.65625 -25 C 25.957031 -23.207031 27.46875 -20.679688 28.1875 -17.421875 L 19.28125 -17.421875 C 18.53125 -19.503906 17.078125 -20.546875 14.921875 -20.546875 C 13.390625 -20.546875 12.164062 -19.953125 11.25 -18.765625 C 10.34375 -17.578125 9.890625 -15.875 9.890625 -13.65625 C 9.890625 -11.4375 10.34375 -9.726562 11.25 -8.53125 C 12.164062 -7.34375 13.390625 -6.75 14.921875 -6.75 C 17.078125 -6.75 18.53125 -7.796875 19.28125 -9.890625 L 28.1875 -9.890625 C 27.46875 -6.691406 25.945312 -4.175781 23.625 -2.34375 C 21.3125 -0.519531 18.460938 0.390625 15.078125 0.390625 C 12.398438 0.390625 10.023438 -0.175781 7.953125 -1.3125 C 5.878906 -2.457031 4.265625 -4.085938 3.109375 -6.203125 C 1.953125 -8.328125 1.375 -10.8125 1.375 -13.65625 Z M 1.375 -13.65625 "/></g></g></g><g fill="#ffffff" fill-opacity="1"><g transform="translate(272.892068, 204.374987)"><g><path d="M 19.71875 0 L 11.40625 -11.453125 L 11.40625 0 L 3.03125 0 L 3.03125 -36.21875 L 11.40625 -36.21875 L 11.40625 -16.203125 L 19.671875 -27.3125 L 30 -27.3125 L 18.640625 -13.609375 L 30.09375 0 Z M 19.71875 0 "/></g></g></g><g fill="#ffffff" fill-opacity="1"><g transform="translate(303.128226, 204.374987)"><g><path d="M 28.78125 -14.09375 C 28.78125 -13.3125 28.726562 -12.492188 28.625 -11.640625 L 9.6875 -11.640625 C 9.820312 -9.953125 10.367188 -8.65625 11.328125 -7.75 C 12.285156 -6.851562 13.46875 -6.40625 14.875 -6.40625 C 16.96875 -6.40625 18.421875 -7.285156 19.234375 -9.046875 L 28.140625 -9.046875 C 27.679688 -7.253906 26.851562 -5.640625 25.65625 -4.203125 C 24.46875 -2.773438 22.976562 -1.648438 21.1875 -0.828125 C 19.394531 -0.015625 17.390625 0.390625 15.171875 0.390625 C 12.492188 0.390625 10.109375 -0.175781 8.015625 -1.3125 C 5.929688 -2.457031 4.300781 -4.085938 3.125 -6.203125 C 1.957031 -8.328125 1.375 -10.8125 1.375 -13.65625 C 1.375 -16.488281 1.953125 -18.960938 3.109375 -21.078125 C 4.265625 -23.203125 5.882812 -24.835938 7.96875 -25.984375 C 10.0625 -27.128906 12.460938 -27.703125 15.171875 -27.703125 C 17.816406 -27.703125 20.164062 -27.144531 22.21875 -26.03125 C 24.269531 -24.925781 25.875 -23.34375 27.03125 -21.28125 C 28.195312 -19.226562 28.78125 -16.832031 28.78125 -14.09375 Z M 20.21875 -16.296875 C 20.21875 -17.734375 19.726562 -18.875 18.75 -19.71875 C 17.769531 -20.570312 16.546875 -21 15.078125 -21 C 13.671875 -21 12.484375 -20.585938 11.515625 -19.765625 C 10.554688 -18.953125 9.960938 -17.796875 9.734375 -16.296875 Z M 20.21875 -16.296875 "/></g></g></g><g fill="#ffffff" fill-opacity="1"><g transform="translate(333.266537, 204.374987)"><g><path d="M 11.40625 -22.75 C 12.382812 -24.25 13.609375 -25.429688 15.078125 -26.296875 C 16.546875 -27.160156 18.175781 -27.59375 19.96875 -27.59375 L 19.96875 -18.75 L 17.671875 -18.75 C 15.578125 -18.75 14.007812 -18.296875 12.96875 -17.390625 C 11.925781 -16.492188 11.40625 -14.921875 11.40625 -12.671875 L 11.40625 0 L 3.03125 0 L 3.03125 -27.3125 L 11.40625 -27.3125 Z M 11.40625 -22.75 "/></g></g></g></svg>